<?xml version="1.0" encoding="utf-8"?>
<!-- Generator: Adobe Illustrator 16.0.4, SVG Export Plug-In . SVG Version: 6.00 Build 0)  -->
<!DOCTYPE svg PUBLIC "-//W3C//DTD SVG 1.1//EN" "http://www.w3.org/Graphics/SVG/1.1/DTD/svg11.dtd">
<svg version="1.1" id="Calque_1" xmlns="http://www.w3.org/2000/svg" xmlns:xlink="http://www.w3.org/1999/xlink" x="0px" y="0px"
	 width="1024px" height="83.335px" viewBox="0 342.247 1024 83.335" enable-background="new 0 342.247 1024 83.335"
	 xml:space="preserve">
<path d="M0,342.418v83.164h24.15v-20.918h59.185v-20.749H24.15v-20.749h59.015v-20.748 M683.347,383.915v0.851
	c0,10.544-8.674,19.898-23.979,19.898c-15.646,0-23.98-9.354-23.98-19.898v-1.701c0-10.544,8.504-19.898,23.98-19.898
	c10.374,0,17.688,4.252,21.429,10.375h25.511c-4.592-17.518-22.109-31.123-46.939-31.123c-29.082,0-48.301,18.878-48.301,40.646
	v1.871c0,21.599,19.219,40.646,48.301,40.646c14.966,0,23.979-8.503,23.979-8.503v8.503h24.15v-41.667H683.347z M475.01,342.418
	l-27.382,51.871h-1.7l-26.191-51.871h-36.055v83.164h24.32v-62.416l31.293,62.416h14.796l31.293-62.416v62.416h24.32v-83.164
	 M551.201,342.418h24.15v83.164h-24.15V342.418z M788.961,363.166l12.586,31.123h-25.171L788.961,363.166z M775.186,342.418
	l-41.668,83.164h28.402l4.932-10.374h44.219l4.933,10.374h28.401l-41.667-83.164H775.186z M894.576,383.915v-20.749h24.49
	c11.395,0,15.646,4.082,15.646,9.864v1.19c0,5.953-4.422,9.864-14.967,9.864h-25.17V383.915z M942.195,394.289
	c0,0,19.049-3.741,19.049-21.259c0-16.667-11.905-30.442-35.545-30.783h-55.443v83.165h24.32v-20.748h24.66l13.775,20.748h28.402
	L942.195,394.289z M999.85,342.418H1024v83.164h-24.15V342.418z M191.16,383.064c0-10.544-8.673-19.898-23.98-19.898
	c-15.646,0-23.98,9.354-23.98,19.898v1.701c0,10.544,8.503,19.898,23.98,19.898c15.307,0,23.98-9.354,23.98-19.898V383.064z
	 M167.35,425.582c-29.082,0-48.3-19.048-48.3-40.646v-1.871c-0.17-21.769,19.048-40.646,48.3-40.646
	c29.083,0,48.13,18.878,48.13,40.646v1.871C215.48,406.534,196.262,425.582,167.35,425.582 M275.346,383.915v-20.749h24.49
	c11.395,0,15.646,4.082,15.646,9.864v1.19c0,5.953-4.422,9.864-14.966,9.864h-25.17V383.915z M323.136,394.289
	c0,0,19.048-3.741,19.048-21.259c0-16.667-11.905-30.442-35.545-30.783h-55.443v83.165h24.15v-20.748h24.66l13.776,20.748h28.402
	L323.136,394.289z"/>
</svg>
